<svg xmlns="http://www.w3.org/2000/svg" xmlns:xlink="http://www.w3.org/1999/xlink" viewBox="0,0,255.99265,255.99265" width="25px" height="25px" fill-rule="nonzero"><g fill="#000000" fill-rule="nonzero" stroke="none" stroke-width="1" stroke-linecap="butt" stroke-linejoin="miter" stroke-miterlimit="10" stroke-dasharray="" stroke-dashoffset="0" font-family="none" font-weight="none" font-size="none" text-anchor="none" style="mix-blend-mode: normal"><g transform="scale(5.12,5.12)"><path d="M31,2c-9,0 -17.48828,3.82422 -21.92187,11.5c-3.13672,5.4375 -3.95312,12.01563 -2.23437,18.04297c1.65625,5.8125 5.43359,10.55078 10.64453,13.34766c3.9375,2.10938 8.51172,3.10938 12.51172,3.10938c4.58594,0 8.57031,-1.32812 12.57422,-4.07812c0.37891,-0.26172 0.54297,-0.73047 0.41016,-1.16797c-0.13672,-0.4375 -0.53906,-0.73437 -0.99609,-0.73828c-3.63672,-0.01953 -7.60937,-1.82031 -10.8125,-3.98047c-2.16406,0.13672 -7.13281,0.61328 -9.67578,-0.03516c-1.71094,-0.4375 -4.41016,-1.70312 -5.51562,-4.9375c3.75781,2.75 8.41797,2.02344 11.41797,1.94141c-0.98828,-0.95703 -1.73828,-1.86328 -2.13672,-2.59766l2.26953,-1.51562c0.30469,-0.19922 0.47656,-0.55078 0.44531,-0.91016c-0.03125,-0.36328 -0.25391,-0.68359 -0.58594,-0.83203c-0.01562,-0.00781 -0.85937,-0.40625 -1.83594,-1.33984c0.29688,-0.32031 0.55078,-0.71484 0.73438,-1.16406c0.44922,-1.08594 0.6875,-2.57422 0.70703,-4.63281c0.00391,-0.26953 -0.10156,-0.52734 -0.28906,-0.71484c-0.1875,-0.19141 -0.44531,-0.29687 -0.71094,-0.29687h-3v2h-0.19141c-0.00391,0 0,0 0,0h-0.87109c-0.21484,3.33203 -1.39062,5.05859 -2.95312,5.05859c-1.52734,0 -2.75391,-1.6875 -2.95703,-5.05859h-4.02734c-0.55078,0 -1,-0.44922 -1,-1c0,-0.55469 0.44922,-1 1,-1h11.03125c-0.03125,-8.54687 5.73047,-15.19141 8.53516,-17.07422c0.36719,-0.24609 0.53906,-0.69922 0.42969,-1.12891c-0.11328,-0.42969 -0.55469,-0.76172 -0.99609,-0.79687z"></path></g></g></svg>