<svg xmlns="http://www.w3.org/2000/svg" xmlns:xlink="http://www.w3.org/1999/xlink" viewBox="0,0,255.99265,255.99265" width="35px" height="35px" fill-rule="nonzero"><g fill="#ffffff" fill-rule="nonzero" stroke="none" stroke-width="1" stroke-linecap="butt" stroke-linejoin="miter" stroke-miterlimit="10" stroke-dasharray="" stroke-dashoffset="0" font-family="none" font-weight="none" font-size="none" text-anchor="none" style="mix-blend-mode: normal"><g transform="scale(5.12,5.12)"><path d="M25.39453,1.5957c-0.289,-0.05587 -0.59883,-0.00027 -0.86133,0.17773c-0.527,0.356 -0.66359,1.0697 -0.30859,1.5957c0.438,0.648 0.61625,1.19595 0.53125,1.62695c-0.06,0.298 -0.23748,0.53548 -0.52148,0.89648c-0.382,0.485 -0.90402,1.15053 -0.91602,2.14453c-0.008,0.828 0.33181,1.62323 1.00781,2.36523c0.227,0.249 0.53761,0.375 0.84961,0.375c0.277,0 0.55439,-0.09883 0.77539,-0.29883c0.47,-0.428 0.50222,-1.156 0.07422,-1.625c-0.186,-0.205 -0.4073,-0.50997 -0.4043,-0.79297c0.002,-0.192 0.12383,-0.36705 0.42383,-0.74805c0.337,-0.429 0.79975,-1.01709 0.96875,-1.87109c0.209,-1.055 -0.08881,-2.18438 -0.88281,-3.35938c-0.1785,-0.2635 -0.44733,-0.43045 -0.73633,-0.48633zM41.66992,7.58789c-0.588,-0.012 -1.17217,0.4607 -1.20117,1.0957c-0.013,0.278 -0.07244,0.65066 -0.27344,0.84766c-0.138,0.135 -0.34712,0.17152 -0.82812,0.22852c-0.542,0.065 -1.28386,0.15467 -2.00586,0.63867c-0.894,0.597 -1.48391,1.606 -1.75391,3c-0.121,0.624 0.28716,1.22666 0.91016,1.34766c0.074,0.014 0.14675,0.02148 0.21875,0.02148c0.54,0 1.02291,-0.38164 1.12891,-0.93164c0.149,-0.769 0.40939,-1.28234 0.77539,-1.52734c0.251,-0.169 0.54305,-0.21162 0.99805,-0.26562c0.614,-0.073 1.45502,-0.17414 2.16602,-0.86914c0.591,-0.578 0.91394,-1.37981 0.96094,-2.38281c0.03,-0.634 -0.4607,-1.17312 -1.0957,-1.20312zM8.95508,7.60742c-0.634,-0.127 -1.22766,0.28811 -1.34766,0.91211c-0.121,0.623 0.28716,1.2247 0.91016,1.3457c0.768,0.149 1.28239,0.41039 1.52539,0.77539c0.169,0.252 0.21063,0.544 0.26563,1c0.073,0.613 0.17414,1.45406 0.86914,2.16406c0.578,0.59 1.38077,0.91394 2.38477,0.96094c0.018,0.001 0.03569,0.00195 0.05469,0.00195c0.611,0 1.11939,-0.4797 1.15039,-1.0957c0.03,-0.634 -0.4607,-1.17313 -1.0957,-1.20312c-0.278,-0.012 -0.65066,-0.07144 -0.84766,-0.27344c-0.135,-0.138 -0.17052,-0.34713 -0.22852,-0.82812c-0.066,-0.542 -0.15663,-1.28381 -0.64062,-2.00781c-0.598,-0.893 -1.607,-1.48295 -3,-1.75195zM25,13.5c-6.34,0 -11.5,5.16 -11.5,11.5c0,6.34 5.16,11.5 11.5,11.5c6.34,0 11.5,-5.16 11.5,-11.5c0,-6.34 -5.16,-11.5 -11.5,-11.5zM28.5,19.76953c1.17,0 2.21984,0.75133 2.58984,1.86133c0.2,0.61 -0.1207,1.25898 -0.7207,1.45898c-0.12,0.04 -0.24914,0.06055 -0.36914,0.06055c-0.48,0 -0.92984,-0.30125 -1.08984,-0.78125c-0.12,-0.35 -0.70031,-0.35 -0.82031,0c-0.2,0.6 -0.84898,0.9207 -1.45898,0.7207c-0.6,-0.2 -0.9207,-0.84898 -0.7207,-1.45898c0.37,-1.11 1.41984,-1.86133 2.58984,-1.86133zM21.5,19.82031h0.05078c1.12,0.02 2.10953,0.70977 2.51953,1.75977c0.23,0.6 -0.06039,1.26023 -0.65039,1.49023c-0.14,0.05 -0.27992,0.08008 -0.41992,0.08008c-0.46,0 -0.89031,-0.28047 -1.07031,-0.73047c-0.07,-0.18 -0.23992,-0.30078 -0.41992,-0.30078c-0.2,-0.02 -0.36945,0.11078 -0.43945,0.30078c-0.23,0.59 -0.90023,0.88039 -1.49023,0.65039c-0.59,-0.23 -0.88039,-0.90023 -0.65039,-1.49023c0.41,-1.06 1.44031,-1.75977 2.57031,-1.75977zM42.63867,22.2793c-0.81759,0.0322 -1.67659,0.34711 -2.55859,0.94336c-0.527,0.356 -0.66359,1.07166 -0.30859,1.59766c0.356,0.526 1.0697,0.66459 1.5957,0.30859c0.446,-0.302 1.08691,-0.63725 1.62891,-0.53125c0.297,0.059 0.53353,0.23553 0.89453,0.51953c0.486,0.382 1.15153,0.90402 2.14453,0.91602h0.03125c0.816,0 1.60198,-0.33786 2.33398,-1.00586c0.47,-0.428 0.50417,-1.155 0.07617,-1.625c-0.429,-0.469 -1.154,-0.50317 -1.625,-0.07617c-0.204,0.186 -0.50711,0.40625 -0.78711,0.40625h-0.00586c-0.192,-0.002 -0.36509,-0.12383 -0.74609,-0.42383c-0.429,-0.337 -1.01709,-0.7978 -1.87109,-0.9668c-0.263,-0.0525 -0.5302,-0.07323 -0.80273,-0.0625zM4.31641,22.32031c-0.8,0.011 -1.62223,0.32986 -2.36523,1.00586c-0.47,0.428 -0.50417,1.155 -0.07617,1.625c0.429,0.469 1.155,0.50217 1.625,0.07617c0.204,-0.186 0.50516,-0.40625 0.78516,-0.40625h0.00781c0.192,0.002 0.36509,0.12383 0.74609,0.42383c0.429,0.337 1.01709,0.79975 1.87109,0.96875c0.218,0.043 0.43906,0.0625 0.66406,0.0625c0.861,0 1.76427,-0.31536 2.69727,-0.94336c0.526,-0.356 0.66459,-1.07166 0.30859,-1.59766c-0.356,-0.527 -1.07066,-0.66459 -1.59766,-0.30859c-0.444,0.301 -1.091,0.63925 -1.625,0.53125c-0.298,-0.059 -0.53453,-0.23748 -0.89453,-0.52148c-0.487,-0.382 -1.15348,-0.90502 -2.14648,-0.91602zM20,26h10c0.3,0 0.5893,0.14086 0.7793,0.38086c0.19,0.23 0.26117,0.53984 0.20117,0.83984c-0.63,2.77 -3.14047,4.7793 -5.98047,4.7793c-2.84,0 -5.35047,-2.0093 -5.98047,-4.7793c-0.06,-0.3 0.01117,-0.60984 0.20117,-0.83984c0.19,-0.24 0.4793,-0.38086 0.7793,-0.38086zM35.95508,35.60742c-0.626,-0.126 -1.22766,0.28716 -1.34766,0.91016c-0.121,0.624 0.28716,1.22666 0.91016,1.34766c0.768,0.149 1.28139,0.41039 1.52539,0.77539c0.169,0.252 0.21063,0.544 0.26563,1c0.073,0.613 0.17414,1.45306 0.86914,2.16406c0.578,0.591 1.38177,0.91394 2.38477,0.96094c0.018,0.001 0.03569,0.00195 0.05469,0.00195c0.611,0 1.11844,-0.4797 1.14844,-1.0957c0.03,-0.634 -0.45875,-1.17412 -1.09375,-1.20312c-0.278,-0.013 -0.65261,-0.07048 -0.84961,-0.27148c-0.135,-0.138 -0.17052,-0.34908 -0.22852,-0.83008c-0.066,-0.542 -0.15467,-1.28186 -0.63867,-2.00586c-0.598,-0.894 -1.607,-1.48391 -3,-1.75391zM12.37305,35.60938c-0.44016,0.09183 -0.79672,0.44216 -0.88672,0.91016c-0.148,0.767 -0.40744,1.28039 -0.77344,1.52539c-0.252,0.169 -0.544,0.21063 -1,0.26563c-0.613,0.073 -1.45306,0.17414 -2.16406,0.86914c-0.591,0.578 -0.91394,1.37981 -0.96094,2.38281c-0.03,0.634 0.45875,1.17412 1.09375,1.20313c0.018,0.001 0.03569,0.00195 0.05469,0.00195c0.611,0 1.12044,-0.4817 1.14844,-1.0957c0.013,-0.278 0.07048,-0.65066 0.27148,-0.84766c0.138,-0.134 0.34713,-0.17052 0.82813,-0.22852c0.542,-0.065 1.28381,-0.15563 2.00781,-0.64062c0.894,-0.598 1.48195,-1.60605 1.75195,-2.99805c0.121,-0.624 -0.2852,-1.22666 -0.9082,-1.34766c-0.1585,-0.03175 -0.31617,-0.03061 -0.46289,0zM25.39453,39.5957c-0.28913,-0.05562 -0.59883,-0.00026 -0.86133,0.17773c-0.526,0.356 -0.66459,1.0697 -0.30859,1.5957c0.437,0.647 0.61625,1.19495 0.53125,1.62695c-0.06,0.298 -0.23653,0.53453 -0.51953,0.89453c-0.383,0.487 -0.90597,1.15248 -0.91797,2.14648c-0.008,0.827 0.32986,1.62324 1.00586,2.36523c0.228,0.249 0.53856,0.375 0.85156,0.375c0.276,0 0.55339,-0.09878 0.77539,-0.30078c0.47,-0.428 0.50417,-1.155 0.07617,-1.625c-0.187,-0.205 -0.40925,-0.50901 -0.40625,-0.79102c0.002,-0.192 0.12383,-0.36705 0.42383,-0.74805c0.337,-0.429 0.79975,-1.01609 0.96875,-1.87109c0.209,-1.054 -0.08781,-2.18633 -0.88281,-3.36133c-0.178,-0.2635 -0.4472,-0.42875 -0.73633,-0.48437z"></path></g></g></svg>