<?xml version="1.0" standalone="no"?>
<!DOCTYPE svg PUBLIC "-//W3C//DTD SVG 20010904//EN"
 "http://www.w3.org/TR/2001/REC-SVG-20010904/DTD/svg10.dtd">
<svg version="1.0" xmlns="http://www.w3.org/2000/svg"
 width="399.000000pt" height="357.000000pt" viewBox="0 0 399.000000 357.000000"
 preserveAspectRatio="xMidYMid meet">

<g transform="translate(0.000000,357.000000) scale(0.100000,-0.100000)"
fill="#61677A" stroke="none">
<path d="M2975 3244 c-176 -16 -411 -65 -585 -120 -41 -13 -91 -29 -110 -35
-41 -12 -178 -64 -235 -88 -22 -10 -76 -33 -120 -52 -105 -45 -277 -129 -343
-168 -29 -17 -61 -31 -72 -31 -13 0 -32 25 -66 88 -119 220 -188 323 -233 346
-109 56 -210 6 -266 -132 -52 -128 -100 -423 -141 -862 -11 -123 -23 -195 -39
-241 -69 -199 -46 -457 45 -504 37 -19 109 -19 137 0 42 30 83 219 83 387 0
101 5 114 82 229 89 131 275 328 298 314 5 -3 14 -22 20 -43 20 -61 292 -590
352 -683 84 -130 147 -168 241 -144 86 22 110 57 222 325 130 313 196 432 354
645 54 72 112 152 131 179 45 67 109 129 125 122 8 -3 15 0 17 6 5 13 47 21
101 20 55 0 97 -41 92 -89 -2 -19 1 -48 5 -64 7 -23 5 -31 -6 -36 -10 -3 -12
-13 -8 -27 7 -23 31 -82 44 -106 4 -9 11 -31 15 -50 4 -19 11 -41 16 -50 25
-47 91 -333 114 -490 75 -518 95 -811 77 -1135 -16 -269 -51 -407 -124 -483
-38 -38 -85 -43 -129 -11 -16 11 -29 16 -29 10 0 -19 58 -41 105 -41 57 0 88
28 133 122 76 159 118 367 142 703 12 163 5 786 -9 910 -33 281 -78 510 -124
640 -24 68 -86 192 -102 205 -8 7 -15 18 -15 26 0 16 -104 124 -120 124 -7 0
-24 8 -38 18 -15 10 -60 26 -100 35 -69 16 -76 16 -126 -1 -165 -56 -338 -225
-529 -517 -111 -172 -219 -382 -272 -532 -11 -29 -22 -53 -26 -53 -4 0 -60
102 -125 228 -65 125 -139 266 -165 314 l-47 88 36 29 c172 135 539 336 828
452 135 54 428 143 552 168 121 25 378 4 455 -35 30 -16 31 -16 18 0 -20 24
-83 55 -145 72 -50 14 -311 26 -391 18z m-1745 -549 c26 -53 38 -90 33 -98 -4
-8 -39 -42 -78 -76 -96 -85 -100 -78 -72 109 12 80 26 151 30 158 16 24 45 -7
87 -93z"/>
</g>
</svg>
